<?xml version="1.0" encoding="UTF-8" standalone="no"?>
<!-- Created with Inkscape (http://www.inkscape.org/) -->

<svg
   width="74.577965mm"
   height="23.185297mm"
   viewBox="0 0 74.577965 23.185297"
   version="1.1"
   id="svg1"
   xmlns="http://www.w3.org/2000/svg"
   xmlns:svg="http://www.w3.org/2000/svg">
  <defs
     id="defs1">
    <clipPath
       clipPathUnits="userSpaceOnUse"
       id="clipPath261">
      <path
         d="M 0.066142,0.190866 H 566.99514 V 567.11987 H 0.066142 Z"
         clip-rule="evenodd"
         id="path261" />
    </clipPath>
  </defs>
  <g
     id="layer1"
     transform="translate(-74.782412,-65.353888)">
    <path
       id="path260"
       d="m 329.176,426.649 c 3.677,0 7.204,-1.461 9.804,-4.061 2.6,-2.6 4.061,-6.127 4.061,-9.804 0,-3.677 -1.461,-7.204 -4.061,-9.804 -2.6,-2.6 -6.127,-4.061 -9.804,-4.061 h -8.319 v 27.73 z m 0,-4.622 h -3.698 V 403.54 h 3.698 c 2.451,0 4.802,0.974 6.536,2.708 1.733,1.733 2.707,4.084 2.707,6.536 0,2.451 -0.974,4.803 -2.707,6.536 -1.734,1.733 -4.085,2.707 -6.536,2.707 z m 66.533,-12.669 c -0.012,0.216 -0.019,0.434 -0.019,0.653 0,0.219 0.007,0.437 0.019,0.653 v 10.439 h 4.622 v -2.073 c 1.82,1.304 4.051,2.073 6.461,2.073 6.127,0 11.101,-4.97 11.101,-11.092 0,-6.122 -4.974,-11.092 -11.101,-11.092 -2.41,0 -4.641,0.768 -6.461,2.073 v -7.619 h -4.622 z m 4.622,0.154 c 0.255,-3.339 3.053,-5.972 6.461,-5.972 3.575,0 6.48,2.899 6.48,6.471 0,3.572 -2.905,6.47 -6.48,6.47 -3.408,0 -6.206,-2.632 -6.461,-5.972 z m -33.585,-4.585 c -1.845,-3.567 -5.569,-6.008 -9.859,-6.008 -6.122,0 -11.092,4.97 -11.092,11.092 0,6.122 4.97,11.092 11.092,11.092 6.122,0 11.092,-4.97 11.092,-11.092 0,-0.792 -0.083,-1.566 -0.242,-2.311 h -16.895 c 0.931,-2.431 3.288,-4.16 6.045,-4.16 1.51,0 2.9,0.519 4.001,1.387 z m -3.814,7.395 c -0.931,2.431 -3.288,4.159 -6.045,4.159 -2.757,0 -5.114,-1.728 -6.045,-4.159 z m 28.771,-7.395 c -1.844,-3.567 -5.569,-6.008 -9.859,-6.008 -6.122,0 -11.092,4.97 -11.092,11.092 0,6.122 4.97,11.092 11.092,11.092 6.122,0 11.092,-4.97 11.092,-11.092 0,-0.792 -0.083,-1.566 -0.241,-2.311 h -16.896 c 0.931,-2.431 3.288,-4.16 6.045,-4.16 1.51,0 2.9,0.519 4.001,1.387 z m -3.814,7.395 c -0.931,2.431 -3.288,4.159 -6.045,4.159 -2.757,0 -5.114,-1.728 -6.045,-4.159 z m 86.751,-7.965 c -0.018,0.012 -0.04,0.022 -0.051,0.016 -0.104,-0.055 0.135,-0.199 0.242,-0.27 0.403,-0.267 0.898,-0.473 1.378,-0.555 0.442,-0.079 0.876,-0.09 1.309,-0.021 0.861,0.136 1.704,0.416 2.527,0.682 0.738,0.235 1.466,0.47 2.188,0.741 0.697,0.262 1.382,0.536 2.048,0.884 0.543,0.342 1.261,0.178 1.603,-0.364 0.041,-0.066 0.074,-0.133 0.101,-0.202 0.243,0.856 0.5,1.706 0.721,2.572 0.534,1.672 0.96,3.372 1.472,5.047 0.362,1.182 0.771,2.349 1.244,3.498 0.632,1.493 1.322,2.966 2.089,4.403 1.109,2.074 2.342,4.076 3.429,6.152 0.406,0.868 1.439,1.244 2.307,0.839 0.868,-0.404 1.243,-1.438 0.838,-2.306 l -4.731,-10.687 c -0.262,-0.65 -0.492,-1.309 -0.714,-1.97 0.514,0.242 1.048,0.48 1.589,0.707 2.251,0.943 4.557,1.699 5.617,2.197 0.55,0.331 1.265,0.153 1.595,-0.397 0.33,-0.55 0.152,-1.264 -0.398,-1.595 -1.318,-0.971 -4.831,-3.07 -7.405,-4.842 -0.367,-0.253 -0.841,-0.514 -1.242,-0.754 0.846,-0.545 2.046,-1.108 3.314,-1.671 3.062,-1.358 6.434,-2.652 7.313,-3.139 0.586,-0.261 0.849,-0.949 0.588,-1.535 -0.262,-0.586 -0.95,-0.85 -1.536,-0.589 -0.736,0.252 -3.083,0.639 -5.597,1.256 -2.112,0.519 -4.306,1.184 -5.854,1.913 -0.268,0.126 -0.518,0.259 -0.749,0.398 -0.267,-0.617 -0.545,-1.228 -0.852,-1.828 -0.896,-1.749 -1.919,-3.358 -2.869,-5.078 -0.179,-0.478 -0.712,-0.722 -1.19,-0.543 -0.478,0.178 -0.721,0.711 -0.543,1.189 0.393,1.837 0.747,3.624 1.207,5.44 -0.035,-0.028 -0.071,-0.054 -0.11,-0.078 -0.549,-0.412 -1.117,-0.775 -1.703,-1.122 -0.851,-0.504 -1.733,-0.939 -2.626,-1.379 -0.935,-0.457 -1.896,-0.925 -2.9,-1.226 -0.807,-0.242 -1.64,-0.33 -2.503,-0.287 -1.688,0.104 -3.502,0.879 -4.475,2.076 -0.591,0.727 -0.919,1.623 -0.842,2.698 -1.142,-0.929 -2.878,-2.264 -4.74,-3.169 -1.784,-0.867 -3.687,-1.254 -5.376,-0.901 -1.968,0.421 -2.762,1.651 -3.056,3.065 -0.29,1.401 0.23,3.234 0.821,4.752 0.69,1.708 1.685,3.264 2.918,4.615 1.202,1.318 2.64,2.424 4.167,3.347 1.08,0.618 3.273,1.517 4.713,1.559 1.106,0.032 1.962,-0.305 2.468,-0.855 l 1.127,-1.115 c 0.558,-0.767 0.757,-1.705 0.335,-2.735 -0.235,-0.576 -0.663,-1.233 -1.203,-1.81 -0.781,-0.833 -1.716,-1.546 -1.816,-1.634 -1.117,-0.969 -2.319,-1.651 -3.654,-2.062 -1.604,-0.494 -3.358,-0.657 -5.268,-0.642 -0.043,-0.085 -0.085,-0.17 -0.125,-0.257 -0.29,-0.603 -0.608,-1.277 -0.75,-1.93 -0.081,-0.373 -0.245,-0.795 0.203,-0.932 1.005,-0.315 2.172,-0.08 3.309,0.335 2.436,0.89 4.729,2.54 5.58,3.086 0.407,0.293 0.94,0.285 1.332,0.019 0.281,0.433 0.607,0.834 0.969,1.206 0.821,0.843 1.829,1.528 2.762,2.204 1.344,0.912 2.702,1.777 4.123,2.543 2.109,1.137 4.281,2.091 6.508,3.003 0.57,0.294 1.272,0.069 1.565,-0.501 0.293,-0.571 0.068,-1.272 -0.503,-1.566 -1.633,-1.031 -3.195,-2.118 -4.755,-3.242 -1.529,-1.101 -3.019,-2.236 -4.446,-3.483 -0.624,-0.509 -1.282,-1.033 -1.877,-1.606 -0.428,-0.411 -0.832,-0.844 -1.062,-1.398 -0.024,-0.052 -0.089,-0.126 -0.098,-0.166 z m -4.9,9.745 c -0.652,-0.141 -1.881,-1.091 -2.344,-1.388 -1.195,-0.726 -2.295,-1.616 -3.262,-2.624 -0.104,-0.109 -0.207,-0.219 -0.309,-0.33 0.548,0.121 1.076,0.268 1.584,0.445 1.166,0.407 2.179,1.031 3.049,1.977 0.065,0.07 1.237,0.902 1.772,1.548 0.0559,0.1129 0.0154,0.18099 -0.009,0.22699 -0.02,0.225 -0.23772,0.19301 -0.46472,0.14801 l -0.182,0.144 c 0.053,-0.049 0.107,-0.1 0.166,-0.147 z m -21.302,10.121 2.165,-0.196 c 1.689,-0.196 2.987,-0.852 3.706,-1.951 0.636,-0.508 1.234,-1.203 1.697,-2.117 1.348,-2.661 2.124,-6.619 1.399,-8.189 l -3.719,-16.219 c -0.433,-1.679 -1.579,-3.176 -2.938,-4.362 -1.489,-1.302 -3.413,-1.923 -5.209,-2.034 l -16.483,-0.321 c -1.932,-0.002 -4.747,1.434 -6.618,3.817 -1.3,1.656 -2.024,3.616 -2.162,5.34 -0.878,1.576 -1.194,3.64 -0.407,5.913 l 5.624,15.563 c 0.635,1.679 1.787,3.264 3.318,4.33 1.619,1.128 3.517,1.812 5.31,1.726 l 10.979,-0.997 c 0.652,2.134 1.134,4.063 1.248,5.581 0.005,0.693 0.571,1.251 1.263,1.247 0.692,-0.005 1.25,-0.57 1.245,-1.263 0.09,-1.573 -0.067,-3.61 -0.418,-5.868 z m -21.869,-29.635 c 0.815,-0.81 1.741,-1.378 2.49,-1.378 h 16.483 c 1.941,0 4.059,1.575 4.727,3.516 l 5.387,15.645 c 0.347,1.009 -0.186,3.128 -1.052,4.928 l -3.584,-16.02 c -0.442,-1.693 -1.598,-3.206 -2.973,-4.397 -1.506,-1.305 -3.448,-1.931 -5.257,-2.032 z m 12.1,11.342 c 0.744,1.986 1.908,5.308 3.149,8.947 -1.5,-0.85 -3.17,-2.042 -4.686,-3.355 -1.329,-1.151 -2.495,-2.422 -3.281,-3.675 -0.231,-0.368 -0.434,-0.728 -0.571,-1.083 1.223,-0.4 3.034,-0.812 4.612,-0.821 0.263,-0.009 0.52,-0.014 0.777,-0.013 z m 5.496,15.713 h -10.047 c -1.941,0 -4.059,-1.575 -4.727,-3.516 l -5.387,-15.644 c -0.474,-1.377 -0.092,-2.57 0.863,-3.147 0.391,-0.236 0.878,-0.37 1.443,-0.37 h 16.483 c 1.94,0 4.058,1.576 4.727,3.517 l 5.386,15.644 c 0.185,0.535 0.24,1.042 0.182,1.496 -0.152,1.194 -1.081,2.02 -2.487,2.02 h -2.629 c -0.181,-0.89 -0.387,-1.799 -0.614,-2.714 -0.534,-2.146 -1.198,-4.313 -1.89,-6.333 -0.759,-2.213 -1.554,-4.248 -2.234,-5.903 0.554,0.163 1.155,0.359 1.818,0.596 0.583,0.269 1.274,0.013 1.541,-0.57 0.268,-0.583 0.012,-1.273 -0.571,-1.542 -1.761,-1.001 -3.12,-1.627 -4.332,-2.056 -0.489,-0.795 -1.499,-1.14 -2.387,-0.77 -0.08,0.033 -0.157,0.072 -0.23,0.114 -0.34,-0.054 -0.682,-0.098 -1.032,-0.14 -2.644,-0.236 -5.891,0.34 -7.275,0.857 -1.512,0.564 -1.867,1.752 -1.907,2.179 -0.099,1.305 0.227,2.697 1.018,4.041 0.777,1.322 1.976,2.64 3.428,3.807 2.99,2.402 6.937,4.269 9.635,4.917 0.104,0.3 0.209,0.599 0.313,0.899 0.306,0.882 0.617,1.757 0.912,2.618 z"
       style="fill:#3c6a9d;fill-opacity:1;fill-rule:evenodd;stroke:none"
       transform="matrix(0.35277776,0,0,-0.35277776,-33.406884,221.94046)"
       clip-path="url(#clipPath261)" />
  </g>
</svg>
