<?xml version="1.0" encoding="UTF-8" standalone="no"?>
<!-- Created with Inkscape (http://www.inkscape.org/) -->

<svg
   width="23.948076mm"
   height="23.120718mm"
   viewBox="0 0 23.948076 23.120718"
   version="1.1"
   id="svg1"
   xmlns="http://www.w3.org/2000/svg"
   xmlns:svg="http://www.w3.org/2000/svg">
  <defs
     id="defs1">
    <clipPath
       clipPathUnits="userSpaceOnUse"
       id="clipPath261">
      <path
         d="M 0.066142,0.190866 H 566.99514 V 567.11987 H 0.066142 Z"
         clip-rule="evenodd"
         id="path261" />
    </clipPath>
  </defs>
  <g
     id="layer1"
     transform="translate(-74.782412,-65.353888)">
    <path
       id="path260"
       d="m 448.438,424.223 2.165,-0.196 c 1.689,-0.196 2.987,-0.852 3.706,-1.951 0.636,-0.508 1.234,-1.203 1.697,-2.117 1.348,-2.661 2.124,-6.619 1.399,-8.189 l -3.719,-16.219 c -0.433,-1.679 -1.579,-3.176 -2.938,-4.362 -1.489,-1.302 -3.413,-1.923 -5.209,-2.034 l -16.483,-0.321 c -1.932,-0.002 -4.747,1.434 -6.618,3.817 -1.3,1.656 -2.024,3.616 -2.162,5.34 -0.878,1.576 -1.194,3.64 -0.407,5.913 l 5.624,15.563 c 0.635,1.679 1.787,3.264 3.318,4.33 1.619,1.128 3.517,1.812 5.31,1.726 l 10.979,-0.997 c 0.652,2.134 1.134,4.063 1.248,5.581 0.005,0.693 0.571,1.251 1.263,1.247 0.692,-0.005 1.25,-0.57 1.245,-1.263 0.09,-1.573 -0.067,-3.61 -0.418,-5.868 z m -21.869,-29.635 c 0.815,-0.81 1.741,-1.378 2.49,-1.378 h 16.483 c 1.941,0 4.059,1.575 4.727,3.516 l 5.387,15.645 c 0.347,1.009 -0.186,3.128 -1.052,4.928 l -3.584,-16.02 c -0.442,-1.693 -1.598,-3.206 -2.973,-4.397 -1.506,-1.305 -3.448,-1.931 -5.257,-2.032 z m 12.1,11.342 c 0.744,1.986 1.908,5.308 3.149,8.947 -1.5,-0.85 -3.17,-2.042 -4.686,-3.355 -1.329,-1.151 -2.495,-2.422 -3.281,-3.675 -0.231,-0.368 -0.434,-0.728 -0.571,-1.083 1.223,-0.4 3.034,-0.812 4.612,-0.821 0.263,-0.009 0.52,-0.014 0.777,-0.013 z m 5.496,15.713 h -10.047 c -1.941,0 -4.059,-1.575 -4.727,-3.516 l -5.387,-15.644 c -0.474,-1.377 -0.092,-2.57 0.863,-3.147 0.391,-0.236 0.878,-0.37 1.443,-0.37 h 16.483 c 1.94,0 4.058,1.576 4.727,3.517 l 5.386,15.644 c 0.185,0.535 0.24,1.042 0.182,1.496 -0.152,1.194 -1.081,2.02 -2.487,2.02 h -2.629 c -0.181,-0.89 -0.387,-1.799 -0.614,-2.714 -0.534,-2.146 -1.198,-4.313 -1.89,-6.333 -0.759,-2.213 -1.554,-4.248 -2.234,-5.903 0.554,0.163 1.155,0.359 1.818,0.596 0.583,0.269 1.274,0.013 1.541,-0.57 0.268,-0.583 0.012,-1.273 -0.571,-1.542 -1.761,-1.001 -3.12,-1.627 -4.332,-2.056 -0.489,-0.795 -1.499,-1.14 -2.387,-0.77 -0.08,0.033 -0.157,0.072 -0.23,0.114 -0.34,-0.054 -0.682,-0.098 -1.032,-0.14 -2.644,-0.236 -5.891,0.34 -7.275,0.857 -1.512,0.564 -1.867,1.752 -1.907,2.179 -0.099,1.305 0.227,2.697 1.018,4.041 0.777,1.322 1.976,2.64 3.428,3.807 2.99,2.402 6.937,4.269 9.635,4.917 0.104,0.3 0.209,0.599 0.313,0.899 0.306,0.882 0.617,1.757 0.912,2.618 z"
       style="fill:#3c6a9d;fill-opacity:1;fill-rule:evenodd;stroke:none"
       transform="matrix(0.35277776,0,0,-0.35277776,-68.190213,221.87588)"
       clip-path="url(#clipPath261)" />
  </g>
</svg>
